<?xml version="1.0" encoding="UTF-8"?>
<svg id="Layer_2" data-name="Layer 2" xmlns="http://www.w3.org/2000/svg" viewBox="0 0 696.13 712.43">
  <defs>
    <style>
      .cls-1 {
        fill: #283519;
      }

      .cls-1, .cls-2, .cls-3, .cls-4, .cls-5 {
        stroke-width: 0px;
      }

      .cls-2 {
        fill: #768529;
      }

      .cls-2, .cls-3, .cls-4, .cls-5 {
        fill-rule: evenodd;
      }

      .cls-3 {
        fill: #a1ba3a;
      }

      .cls-4 {
        fill: #d8f254;
      }

      .cls-5 {
        fill: #a4ba3b;
      }
    </style>
  </defs>
  <g id="Layer_2-2" data-name="Layer 2">
    <g id="Layer_1-2" data-name="Layer 1-2">
      <path class="cls-1" d="M348.07,12.17c-89.5,1.48-170.39,38.35-229.26,97.23C58.7,169.51,21.52,252.55,21.52,344.27s37.18,174.77,97.28,234.87c58.88,58.88,139.77,95.75,229.26,97.23,89.5-1.48,170.38-38.35,229.26-97.23s97.28-143.15,97.28-234.87-37.18-174.76-97.28-234.87c-58.88-58.88-139.76-95.75-229.26-97.23M348.07,712.43C-87.88,707.05-124.35,80.11,295.55,5.39c37.21-6.62,60.07-7.25,97.27-1.31,428.09,68.33,393.87,702.93-44.76,708.35h.01Z"/>
      <path class="cls-5" d="M243.56,210.13c-2.41-47.35-27.33-88.21-63.88-112.75,27.7,42.81-123.55,154.48,3.78,227.06-12.57-38.42-12.3-64.91-12.3-64.91,1.92-15.32,8.6-36.09,12.64-47.93,4.76-13.97,9.03-26.47,7.46-39.85,8.88,29.51-32.24,76.82,4.81,153,31.11-28.12,49.78-69.48,47.49-114.62"/>
      <path class="cls-5" d="M424.71,88.75c23.27-41.3,63.8-66.76,107.46-72.42-43.89,25.95,41.68,193.38-104.65,201.53,39.35-29.8,40.62-59.48,40.62-59.48,5.11-14.56,7.74-29.26,9.41-41.65,1.97-14.63,3.73-27.72,11.09-38.99-21.11,22.45-5.41,83.14-72.55,134.79-15.3-39.05-13.56-84.39,8.63-123.77"/>
      <path class="cls-1" d="M337.74,703.3c42.2-83.83,20.09-168.7-3.29-258.48-12.15-46.66-66.06-252.22,46.53-359.37-141.88,241.65,108.71,423.5,7.47,624.62l-50.72-6.77h.01Z"/>
      <path class="cls-1" d="M316,281.78c.39-.16,136.57-54.07,152.13-123.4-.52,67.44-117.74,132.9-144.09,143.46l-8.04-20.06h0Z"/>
      <path class="cls-1" d="M358.95,487c-80.85-24.54-198.81-113.72-187.78-227.47,32.35,158.82,193.59,206.67,194.05,206.82l-6.27,20.66h0Z"/>
      <path class="cls-4" d="M154.82,177.74c7.2-13.28,30.17-50.13,56.57-35.33,8.45,4.74,17.25,14.77,25.99,32.55-5.52-18.01-14.45-34.46-25.99-48.65-9.08-11.16-19.77-20.91-31.71-28.93,11.41,17.62-7.52,46.92-24.86,80.36"/>
      <path class="cls-2" d="M233.57,270.84c-45.85,62.26-49.6-44.57-49.6-44.57-5.21,25.81-7.54,58.09,12.11,98.48,16.34-14.77,29.25-33.2,37.49-53.92"/>
      <path class="cls-2" d="M457.44,164.74c-70.1,14.66-29.34-81.69-29.34-81.69-1.17,1.86-2.3,3.76-3.38,5.7-22.19,39.38-23.93,84.73-8.63,123.77,20.19-15.53,32.89-31.89,41.35-47.78"/>
      <path class="cls-4" d="M445.13,60.85s71.3-31.17,73.22,60.95c.91-20.68-.62-41.69-.53-59.67.03-5.64.21-10.98.69-15.92,1.33-13.97,4.94-24.72,13.66-29.88-16.06,2.08-31.7,6.85-46.21,14.09-4.77,2.38-9.41,5.02-13.91,7.94-9.74,6.3-18.8,13.82-26.92,22.5"/>
      <path class="cls-3" d="M649.41,217.13c67.21,346.92-261.38,253.62-261.38,253.62,20.8,67.09,35.72,132.73,16.01,199.98,67.03-12.57,126.97-45.27,173.29-91.58,60.11-60.11,97.28-143.15,97.28-234.87,0-45.03-8.96-87.98-25.2-127.14"/>
      <path class="cls-3" d="M357.57,548.45C-49.05,539.25,81.89,153.28,81.89,153.28c-38.03,54.02-60.37,119.9-60.37,190.99,0,91.73,37.18,174.77,97.28,234.87,58.88,58.88,139.77,95.75,229.26,97.23.36,0,.72-.01,1.08-.02,14.6-42.11,14.77-84.59,8.43-127.91"/>
    </g>
  </g>
</svg>