<?xml version="1.0" encoding="UTF-8"?>
<svg id="Layer_1" data-name="Layer 1" xmlns="http://www.w3.org/2000/svg" xmlns:xlink="http://www.w3.org/1999/xlink" viewBox="0 0 2411.12 963.34">
  <defs>
    <style>
      .cls-1 {
        fill: url(#linear-gradient);
      }

      .cls-1, .cls-2, .cls-3, .cls-4, .cls-5, .cls-6 {
        stroke-width: 0px;
      }

      .cls-2 {
        fill: #000;
      }

      .cls-7 {
        clip-path: url(#clippath-2);
      }

      .cls-8 {
        clip-path: url(#clippath-1);
      }

      .cls-3 {
        clip-rule: evenodd;
        fill: none;
      }

      .cls-4 {
        fill: url(#linear-gradient-2);
      }

      .cls-5 {
        fill: url(#linear-gradient-3);
      }

      .cls-9 {
        clip-path: url(#clippath);
      }

      .cls-6 {
        fill: #007c21;
        fill-rule: evenodd;
      }
    </style>
    <clipPath id="clippath">
      <path class="cls-3" d="M338.81,741.89c51.52-73.62,131.6-122.19,220.7-133.87-89.38-10.46-164.14,27.29-224.28,113.27-12.97,20.57-36.15,32.41-60.42,30.85,61.91-11.25,146.73-299.59,358.8-157.96-36.34,4.06-69.26,35.19-98.75,93.38-17.2,34.83-48.44,60.66-85.87,71.03-37.43,10.37-77.51,4.29-110.18-16.72"/>
    </clipPath>
    <linearGradient id="linear-gradient" x1="296.13" y1="692.35" x2="556.53" y2="557.97" gradientUnits="userSpaceOnUse">
      <stop offset="0" stop-color="#2d9e4b"/>
      <stop offset="1" stop-color="#91c13f"/>
    </linearGradient>
    <clipPath id="clippath-1">
      <path class="cls-3" d="M393.38,335.54c37.25-83.81,37.55-179.41.85-263.45,56.21,72.64,62.56,157.89,19.04,255.74-11.16,22.17-9.3,48.67,4.84,69.07-22.76-60.06,184.7-286.03-50.8-396.89,15.58,33.91,5.7,79.08-29.66,135.51-21.39,33.38-27.54,74.29-16.9,112.49,10.64,38.19,37.06,70.03,72.63,87.54"/>
    </clipPath>
    <linearGradient id="linear-gradient-2" x1="466.18" y1="346.31" x2="446.57" y2="47.87" xlink:href="#linear-gradient"/>
    <clipPath id="clippath-2">
      <path class="cls-3" d="M90.95,715.52c43.57-98.04,43.93-209.89.99-308.21,65.76,84.99,73.18,184.72,22.28,299.19-13.06,25.94-10.89,56.94,5.66,80.8-26.62-70.26,216.08-334.63-59.43-464.33,18.23,39.68,6.66,92.52-34.7,158.53C.72,520.56-6.47,568.43,5.98,613.11c12.45,44.68,43.35,81.93,84.97,102.41"/>
    </clipPath>
    <linearGradient id="linear-gradient-3" x1="176.1" y1="728.13" x2="153.17" y2="378.98" xlink:href="#linear-gradient"/>
  </defs>
  <g class="cls-9">
    <rect class="cls-1" x="274.81" y="452.56" width="358.8" height="316.42"/>
  </g>
  <g class="cls-8">
    <rect class="cls-4" x="310.11" width="292.7" height="396.89"/>
  </g>
  <path class="cls-6" d="M192.81,686.28c-54.87,77.35-64.56,166.17-29.08,266.44-28.1-398.1,430.15-449.91,385.99-835.24-27.52,237.87-225.73,382.1-356.91,568.8"/>
  <path class="cls-6" d="M243.3,696.9c-54.87,77.35-64.56,166.17-29.08,266.44-28.1-398.1,430.15-449.91,385.99-835.24-27.52,237.87-225.73,382.1-356.91,568.8"/>
  <g class="cls-7">
    <rect class="cls-5" x="-6.47" y="322.98" width="342.43" height="464.33"/>
  </g>
  <g>
    <path class="cls-2" d="M1087.64,305.71v46.5h-147.5v102.5h115v46.5h-115v152h-57v-347.5h204.5Z"/>
    <path class="cls-2" d="M1371.14,459.21c-8.34,15.67-21.67,28.42-40,38.25-18.34,9.84-41.84,14.75-70.5,14.75h-63v141h-57v-347.5h120c26.66,0,49.25,4.59,67.75,13.75,18.5,9.17,32.33,21.59,41.5,37.25,9.16,15.67,13.75,33.17,13.75,52.5,0,17.67-4.17,34.34-12.5,50ZM1309.14,450.96c10.66-9.83,16-23.75,16-41.75,0-38-21.5-57-64.5-57h-63v113.5h63c21.66,0,37.83-4.91,48.5-14.75Z"/>
    <path class="cls-2" d="M1668.63,459.21c-8.34,15.67-21.67,28.42-40,38.25-18.34,9.84-41.84,14.75-70.5,14.75h-63v141h-57v-347.5h120c26.66,0,49.25,4.59,67.75,13.75,18.5,9.17,32.33,21.59,41.5,37.25,9.16,15.67,13.75,33.17,13.75,52.5,0,17.67-4.17,34.34-12.5,50ZM1606.63,450.96c10.66-9.83,16-23.75,16-41.75,0-38-21.5-57-64.5-57h-63v113.5h63c21.66,0,37.83-4.91,48.5-14.75Z"/>
    <path class="cls-2" d="M2101.62,305.71v347.5h-57v-238l-106,238h-39.5l-106.5-238v238h-57v-347.5h61.5l122,272.5,121.5-272.5h61Z"/>
    <path class="cls-2" d="M2228.12,644.46c-18.67-8.16-33.34-19.75-44-34.75-10.67-15-16-32.5-16-52.5h61c1.33,15,7.25,27.34,17.75,37,10.5,9.67,25.25,14.5,44.25,14.5s35-4.75,46-14.25,16.5-21.75,16.5-36.75c0-11.66-3.42-21.16-10.25-28.5-6.84-7.33-15.34-13-25.5-17-10.17-4-24.25-8.33-42.25-13-22.67-6-41.09-12.08-55.25-18.25-14.17-6.16-26.25-15.75-36.25-28.75s-15-30.33-15-52c0-20,5-37.5,15-52.5s24-26.5,42-34.5,38.83-12,62.5-12c33.66,0,61.25,8.42,82.75,25.25,21.5,16.84,33.41,39.92,35.75,69.25h-63c-1-12.66-7-23.5-18-32.5s-25.5-13.5-43.5-13.5c-16.34,0-29.67,4.17-40,12.5-10.34,8.34-15.5,20.34-15.5,36,0,10.67,3.25,19.42,9.75,26.25,6.5,6.84,14.75,12.25,24.75,16.25s23.66,8.34,41,13c23,6.34,41.75,12.67,56.25,19,14.5,6.34,26.83,16.09,37,29.25,10.16,13.17,15.25,30.75,15.25,52.75,0,17.67-4.75,34.34-14.25,50-9.5,15.67-23.34,28.25-41.5,37.75-18.17,9.5-39.59,14.25-64.25,14.25-23.34,0-44.34-4.08-63-12.25Z"/>
  </g>
</svg>